<?xml version="1.0" encoding="iso-8859-1"?>
<!-- Generator: Adobe Illustrator 19.0.0, SVG Export Plug-In . SVG Version: 6.00 Build 0)  -->
<svg version="1.1" id="Layer_1" xmlns="http://www.w3.org/2000/svg" xmlns:xlink="http://www.w3.org/1999/xlink" x="0px" y="0px"
	 viewBox="0 0 356.206 356.206" style="enable-background:new 0 0 356.206 356.206;" xml:space="preserve">
<g>
	<g>
		<circle style="fill:#FEE050;" cx="102.271" cy="197.522" r="102.271"/>
		<circle style="fill:#1E252B;" cx="37.347" cy="176.268" r="12.026"/>
		<path style="fill:#1E252B;" d="M155.168,176.269c0-6.64,5.387-12.024,12.029-12.024c6.639,0,12.024,5.384,12.024,12.024
			c0,6.643-5.385,12.029-12.024,12.029C160.555,188.297,155.168,182.911,155.168,176.269z"/>
		<g>
			<path style="fill:#AF8400;" d="M158.788,197.523c0,31.213-25.302,56.518-56.518,56.518c-31.212,0-56.518-25.305-56.518-56.518
				H158.788z"/>
		</g>
	</g>
	<g>
		<path style="fill:#C3C6C8;" d="M269.358,56.412c-47.963,0-86.843,38.881-86.843,86.845c0,21.612,7.914,41.365,20.976,56.562
			c-3.925,11.303-11.171,21.052-20.598,28.048c5.982,2.044,12.394,3.17,19.066,3.17c11.425,0,22.084-3.258,31.118-8.883
			c11.044,5.087,23.325,7.945,36.282,7.945c47.966,0,86.847-38.88,86.847-86.842C356.205,95.293,317.324,56.412,269.358,56.412z"/>
		<g>
			<path style="fill:#333E48;" d="M300.421,113.042h-62.127c-2.794,0-5.058-2.265-5.058-5.059s2.265-5.057,5.058-5.057h62.127
				c2.794,0,5.06,2.263,5.06,5.057S303.215,113.042,300.421,113.042z"/>
			<path style="fill:#333E48;" d="M319.265,136.558h-99.814c-2.794,0-5.058-2.265-5.058-5.057c0-2.794,2.264-5.06,5.058-5.06h99.814
				c2.794,0,5.059,2.266,5.059,5.06C324.324,134.293,322.06,136.558,319.265,136.558z"/>
			<path style="fill:#333E48;" d="M309.637,160.072h-80.554c-2.792,0-5.058-2.266-5.058-5.06c0-2.795,2.266-5.057,5.058-5.057
				h80.554c2.793,0,5.059,2.263,5.059,5.057C314.696,157.805,312.431,160.072,309.637,160.072z"/>
			<path style="fill:#333E48;" d="M300.421,183.589h-62.127c-2.794,0-5.058-2.267-5.058-5.062c0-2.793,2.265-5.058,5.058-5.058
				h62.127c2.794,0,5.06,2.265,5.06,5.058C305.481,181.322,303.215,183.589,300.421,183.589z"/>
		</g>
	</g>
</g>
<g>
</g>
<g>
</g>
<g>
</g>
<g>
</g>
<g>
</g>
<g>
</g>
<g>
</g>
<g>
</g>
<g>
</g>
<g>
</g>
<g>
</g>
<g>
</g>
<g>
</g>
<g>
</g>
<g>
</g>
</svg>
